<svg xmlns="http://www.w3.org/2000/svg" viewBox="0 0 120 40" fill="currentColor">
  <path d="M27.5 4C22.8 4 12 4.3 8.5 5.2A5 5 0 0 0 5 8.7 52 52 0 0 0 4 20a52 52 0 0 0 1 11.3 5 5 0 0 0 3.5 3.5C12 35.7 22.8 36 27.5 36h.1c4.7 0 15.4-.3 19-1.2a5 5 0 0 0 3.5-3.5A52 52 0 0 0 51 20a52 52 0 0 0-1-11.3 5 5 0 0 0-3.5-3.5C43 4.3 32.2 4 27.5 4zM22 13l11 7-11 7V13z"/>
  <path d="M59.4 29.2l-3-11L53.5 29.2h-3.3L55 13.8h3.7l2.6 10 2.6-10H67.6L62.7 29.2zM69.4 22.3c0-1.1.2-2.1.7-3 .4-.8 1-1.5 1.8-2 .8-.4 1.7-.7 2.8-.7s2 .2 2.8.7c.8.4 1.4 1.1 1.8 2 .5.9.7 1.9.7 3v.7h-8c.1.9.3 1.6.8 2.1.5.5 1.1.7 1.8.7.6 0 1-.1 1.4-.4.4-.3.6-.7.8-1.2l2.5.5c-.3 1-.9 1.8-1.7 2.3-.8.5-1.8.8-3 .8s-2.2-.3-3-.8c-.8-.5-1.5-1.2-1.9-2.1-.5-.9-.7-2-.7-3.1zm2.7-1.2h5.4c-.1-.8-.4-1.4-.9-1.9-.5-.4-1-.7-1.8-.7-.7 0-1.3.2-1.8.7-.5.5-.8 1.1-.9 1.9z"/>
  <path d="M87 13.8v2.5h-4v12.9h-2.8V16.3h-4v-2.5zM96.5 27.5c-.5.6-1.1 1.1-1.7 1.4-.6.3-1.3.4-2 .4-1 0-1.8-.2-2.4-.7-.6-.5-1-1.1-1.2-1.9-.2-.8-.4-1.9-.4-3.2v-7.1h2.8v6.8c0 1.3.1 2.2.4 2.7.3.5.8.8 1.5.8.8 0 1.4-.3 1.9-.9.5-.6.7-1.4.7-2.5v-6.9h2.8v12.7h-2.3v-1.6zM107 16.4c1 0 1.9.2 2.6.7.7.5 1.3 1.2 1.7 2.1.4.9.6 2 .6 3.1 0 1.2-.2 2.2-.6 3.1-.4.9-1 1.6-1.7 2.1-.7.5-1.6.7-2.6.7-.7 0-1.3-.1-1.8-.4-.5-.3-1-.7-1.4-1.3v1.5h-2.6V13.8h2.8v5c.4-.5.8-1 1.4-1.3.5-.3 1.1-.5 1.7-.5l-.1.4zm-.7 2.4c-.9 0-1.6.3-2.1.9-.5.6-.8 1.5-.8 2.7 0 1.1.3 2 .8 2.7.5.6 1.2.9 2.1.9.9 0 1.5-.3 2-.9.5-.6.8-1.5.8-2.7 0-1.2-.3-2.1-.8-2.7-.5-.6-1.2-.9-2-.9z"/>
  <path d="M117.6 27.6c-.5.6-1 1.1-1.6 1.3-.6.3-1.2.4-1.9.4-1.2 0-2.2-.3-2.8-1-.7-.7-1-1.6-1-2.7 0-1.2.4-2.2 1.3-2.8.9-.7 2.1-1 3.7-1h2.2v-.5c0-.7-.2-1.2-.5-1.5-.4-.3-.9-.5-1.6-.5-.6 0-1.1.1-1.5.4-.4.3-.6.7-.7 1.3l-2.5-.4c.2-1 .7-1.9 1.5-2.4.8-.6 1.9-.9 3.2-.9 1.5 0 2.6.3 3.3 1 .7.7 1.1 1.7 1.1 3v5.1c0 .7 0 1.3.1 1.8h-2.5l-.1-1.3.3-.3zm-.2-4h-1.8c-.9 0-1.6.2-2 .5-.4.3-.6.8-.6 1.3 0 .5.1.9.4 1.2.3.3.7.4 1.3.4.8 0 1.5-.3 2-.8.5-.5.7-1.1.7-2v-.6z"/>
</svg>
